Input #0, mov,mp4,m4a,3gp,3g2,mj2, from 'C:\Users\sulta\OneDrive - Invesense Asset Management Limited\Documents\remotion\benchmarks\.cache\source\everyone-is-focused-on-the-real-world-assets-the-5bacd504.mp4':
  Metadata:
    major_brand     : isom
    minor_version   : 512
    compatible_brands: isomiso2avc1mp41
  Duration: 00:01:24.59, start: 0.000000, bitrate: 464 kb/s
  Stream #0:0[0x1](und): Video: h264 (High) (avc1 / 0x31637661), yuv420p(tv, bt709, progressive), 720x1280 [SAR 1:1 DAR 9:16], 379 kb/s, 30 fps, 30 tbr, 15360 tbn (default)
    Metadata:
      handler_name    : VideoHandler
      encoder         : AVC Coding
  Stream #0:1[0x2](und): Audio: aac (HE-AAC) (mp4a / 0x6134706D), 44100 Hz, stereo, fltp, 78 kb/s (default)
    Metadata:
      handler_name    : SoundHandler
Stream mapping:
  Stream #0:0 -> #0:0 (h264 (native) -> wrapped_avframe (native))
Press [q] to stop, [?] for help
Output #0, null, to 'NUL':
  Metadata:
    major_brand     : isom
    minor_version   : 512
    compatible_brands: isomiso2avc1mp41
    encoder         : Lavf62.12.101
  Stream #0:0(und): Video: wrapped_avframe, yuv420p(tv, bt709, progressive), 720x1280 [SAR 1:1 DAR 9:16], q=2-31, 200 kb/s, 30 fps, 30 tbn (default)
    Metadata:
      encoder         : Lavc62.28.101 wrapped_avframe
      handler_name    : VideoHandler
[Parsed_scdet_0 @ 0000026b6a6a3dc0] lavfi.scd.score: 66.890, lavfi.scd.time: 9.633333
[Parsed_scdet_0 @ 0000026b6a6a3dc0] lavfi.scd.score: 74.600, lavfi.scd.time: 13.733333
[Parsed_scdet_0 @ 0000026b6a6a3dc0] lavfi.scd.score: 76.084, lavfi.scd.time: 14.933333
[Parsed_scdet_0 @ 0000026b6a6a3dc0] lavfi.scd.score: 64.451, lavfi.scd.time: 19.166667
[Parsed_scdet_0 @ 0000026b6a6a3dc0] lavfi.scd.score: 68.275, lavfi.scd.time: 28.9
[Parsed_scdet_0 @ 0000026b6a6a3dc0] lavfi.scd.score: 71.984, lavfi.scd.time: 37.066667
[Parsed_scdet_0 @ 0000026b6a6a3dc0] lavfi.scd.score: 14.332, lavfi.scd.time: 51
[Parsed_scdet_0 @ 0000026b6a6a3dc0] lavfi.scd.score: 33.163, lavfi.scd.time: 56.9
[out#0/null @ 0000026b6a6a3440] video:1049KiB audio:0KiB subtitle:0KiB other streams:0KiB global headers:0KiB muxing overhead: unknown
frame= 2534 fps=0.0 q=-0.0 Lsize=N/A time=00:01:24.46 bitrate=N/A speed= 200x elapsed=0:00:00.42    
